<svg width="20" height="21" viewBox="0 0 20 21" fill="none" xmlns="http://www.w3.org/2000/svg">
<path d="M14.6 12.5001C14.4 12.4001 13.1 11.8001 12.9 11.7001C12.7 11.6001 12.5 11.6001 12.3 11.8001C12.1 12.0001 11.7 12.6001 11.5 12.8001C11.4 13.0001 11.2 13.0001 11 12.9001C10.3 12.6001 9.6 12.2001 9 11.7001C8.5 11.2001 8 10.6001 7.6 10.0001C7.5 9.8001 7.6 9.6001 7.7 9.5001C7.8 9.4001 7.9 9.2001 8.1 9.1001C8.2 9.0001 8.3 8.8001 8.3 8.7001C8.4 8.6001 8.4 8.4001 8.3 8.3001C8.2 8.2001 7.7 7.0001 7.5 6.5001C7.4 5.8001 7.2 5.8001 7 5.8001C6.9 5.8001 6.7 5.8001 6.5 5.8001C6.3 5.8001 6 6.0001 5.9 6.1001C5.3 6.7001 5 7.4001 5 8.2001C5.1 9.1001 5.4 10.0001 6 10.8001C7.1 12.4001 8.5 13.7001 10.2 14.5001C10.7 14.7001 11.1 14.9001 11.6 15.0001C12.1 15.2001 12.6 15.2001 13.2 15.1001C13.9 15.0001 14.5 14.5001 14.9 13.9001C15.1 13.5001 15.1 13.1001 15 12.7001C15 12.7001 14.8 12.6001 14.6 12.5001ZM17.1 3.4001C13.2 -0.499902 6.9 -0.499902 3 3.4001C-0.2 6.6001 -0.8 11.5001 1.4 15.4001L0 20.5001L5.3 19.1001C6.8 19.9001 8.4 20.3001 10 20.3001C15.5 20.3001 19.9 15.9001 19.9 10.4001C20 7.8001 18.9 5.3001 17.1 3.4001ZM14.4 17.4001C13.1 18.2001 11.6 18.7001 10 18.7001C8.5 18.7001 7.1 18.3001 5.8 17.6001L5.5 17.4001L2.4 18.2001L3.2 15.2001L3 14.9001C0.6 10.9001 1.8 5.9001 5.7 3.4001C9.6 0.900098 14.6 2.2001 17 6.0001C19.4 9.9001 18.3 15.0001 14.4 17.4001Z" fill="#F9F9F9"/>
</svg>
